<svg width="1280" height="720" xmlns="http://www.w3.org/2000/svg" xmlns:xlink="http://www.w3.org/1999/xlink" overflow="hidden"><defs><clipPath id="clip0"><rect x="0" y="0" width="1280" height="720"/></clipPath></defs><g clip-path="url(#clip0)"><rect x="0" y="0" width="1280" height="720" fill="#FFFFFF"/><text font-family="Cambria Math,Cambria Math_MSFontService,sans-serif" font-weight="400" font-size="13" transform="translate(225.637 126)">−<tspan font-size="13" x="9.33333" y="0">&gt;</tspan><tspan font-family="Arial,Arial_MSFontService,sans-serif" font-size="19" x="-120.956" y="82">Trial 1 cue</tspan><tspan font-family="Arial,Arial_MSFontService,sans-serif" font-size="19" x="-111.969" y="105">(guided)</tspan><tspan font-family="Calibri,Calibri_MSFontService,sans-serif" font-size="8" x="-82.0049" y="-5">+</tspan></text><path d="M72.5001 66.7656C72.5001 61.0961 77.0961 56.5001 82.7656 56.5001L209.234 56.5001C214.904 56.5001 219.5 61.0961 219.5 66.7656L219.5 174.234C219.5 179.904 214.904 184.5 209.234 184.5L82.7656 184.5C77.0961 184.5 72.5001 179.904 72.5001 174.234Z" stroke="#000000" stroke-width="1.33333" stroke-miterlimit="8" fill="none" fill-rule="evenodd"/><rect x="100" y="71" width="31" height="31" stroke="#800000" stroke-width="2" stroke-linejoin="round" stroke-miterlimit="10" fill="none"/><rect x="100" y="133" width="31" height="31" stroke="#800000" stroke-width="2" stroke-linejoin="round" stroke-miterlimit="10" fill="none"/><rect x="100" y="103" width="31" height="31" stroke="#800000" stroke-width="2" stroke-linejoin="round" stroke-miterlimit="10" fill="none"/><rect x="161" y="71" width="31" height="31" stroke="#000090" stroke-width="2" stroke-linejoin="round" stroke-miterlimit="10" fill="#5BEF6C"/><rect x="161" y="133" width="31" height="31" stroke="#000090" stroke-width="2" stroke-linejoin="round" stroke-miterlimit="10" fill="none"/><rect x="161" y="103" width="31" height="31" stroke="#000090" stroke-width="2" stroke-linejoin="round" stroke-miterlimit="10" fill="none"/><path d="M0 3.5C-3.8194e-16 1.567 1.34315 -4.45597e-16 3 -8.91193e-16 4.65685-1.78239e-15 6 1.567 6 3.5 6 5.433 4.65685 7 3 7 1.34315 7-1.9097e-15 5.433 0 3.5Z" fill="#800000" fill-rule="evenodd" transform="matrix(-1 0 0 1 82 114)"/><path d="M100.091 134.319 81 119" stroke="#800000" stroke-width="2" stroke-miterlimit="8" fill="#800000" fill-rule="evenodd"/><path d="M0 0 19.0908 15.3191" stroke="#000090" stroke-width="2" stroke-miterlimit="8" fill="#000090" fill-rule="evenodd" transform="matrix(1 0 0 -1 191 133.319)"/><path d="M209 116.5C209 114.567 210.343 113 212 113 213.657 113 215 114.567 215 116.5 215 118.433 213.657 120 212 120 210.343 120 209 118.433 209 116.5Z" fill="#000090" fill-rule="evenodd"/><text font-family="Arial,Arial_MSFontService,sans-serif" font-weight="400" font-size="19" transform="translate(258.116 209)">Trial 1 response<tspan font-family="Calibri,Calibri_MSFontService,sans-serif" font-size="8" x="62.2008" y="-87">+</tspan></text><path d="M248.5 67.6854C248.5 62.0602 253.06 57.5001 258.685 57.5001L386.315 57.5001C391.94 57.5001 396.5 62.0602 396.5 67.6854L396.5 174.315C396.5 179.94 391.94 184.5 386.315 184.5L258.685 184.5C253.06 184.5 248.5 179.94 248.5 174.315Z" stroke="#000000" stroke-width="1.33333" stroke-miterlimit="8" fill="none" fill-rule="evenodd"/><rect x="277" y="72" width="30" height="31" stroke="#800000" stroke-width="2" stroke-linejoin="round" stroke-miterlimit="10" fill="none"/><text font-family="Arial,Arial_MSFontService,sans-serif" font-weight="400" font-size="18" transform="translate(279.816 95)">XX</text><rect x="277" y="134" width="30" height="31" stroke="#800000" stroke-width="2" stroke-linejoin="round" stroke-miterlimit="10" fill="none"/><rect x="277" y="103" width="30" height="31" stroke="#800000" stroke-width="2" stroke-linejoin="round" stroke-miterlimit="10" fill="none"/><rect x="338" y="72" width="30" height="31" stroke="#000090" stroke-width="2" stroke-linejoin="round" stroke-miterlimit="10" fill="none"/><text font-family="Arial,Arial_MSFontService,sans-serif" font-weight="400" font-size="18" transform="translate(347.783 95)">3</text><rect x="338" y="134" width="30" height="31" stroke="#000090" stroke-width="2" stroke-linejoin="round" stroke-miterlimit="10" fill="none"/><rect x="338" y="103" width="30" height="31" stroke="#000090" stroke-width="2" stroke-linejoin="round" stroke-miterlimit="10" fill="none"/><path d="M0 3C-3.18283e-16 1.34315 1.11929 -3.8194e-16 2.5 -7.6388e-16 3.88071-1.52776e-15 5 1.34315 5 3 5 4.65685 3.88071 6 2.5 6 1.11929 6-1.59142e-15 4.65685 0 3Z" fill="#800000" fill-rule="evenodd" transform="matrix(-1 0 0 1 258 115)"/><path d="M277.091 135.319 258 120" stroke="#800000" stroke-width="2" stroke-miterlimit="8" fill="#800000" fill-rule="evenodd"/><text font-family="Cambria Math,Cambria Math_MSFontService,sans-serif" font-weight="400" font-size="13" transform="translate(47.0676 323)">−<tspan font-size="13" x="9.33333" y="0">&gt;</tspan><tspan font-family="Arial,Arial_MSFontService,sans-serif" font-size="19" x="58.6741" y="86">Trial </tspan><tspan font-family="Arial,Arial_MSFontService,sans-serif" font-size="19" x="99.3141" y="86">2 cue</tspan><tspan font-family="Arial,Arial_MSFontService,sans-serif" font-size="19" x="79.5807" y="109">(free)</tspan><tspan font-family="Calibri,Calibri_MSFontService,sans-serif" font-size="8" x="97.6249" y="-1">+</tspan></text><path d="M73.5001 266.846C73.5001 261.132 78.132 256.5 83.8458 256.5L211.154 256.5C216.868 256.5 221.5 261.132 221.5 266.846L221.5 375.154C221.5 380.868 216.868 385.5 211.154 385.5L83.8458 385.5C78.132 385.5 73.5001 380.868 73.5001 375.154Z" stroke="#000000" stroke-width="1.33333" stroke-miterlimit="8" fill="none" fill-rule="evenodd"/><rect x="101" y="272" width="31" height="31" stroke="#800000" stroke-width="2" stroke-linejoin="round" stroke-miterlimit="10" fill="none"/><text font-family="Arial,Arial_MSFontService,sans-serif" font-weight="400" font-size="18" transform="translate(104.191 294)">XX</text><rect x="101" y="334" width="31" height="30" stroke="#800000" stroke-width="2" stroke-linejoin="round" stroke-miterlimit="10" fill="none"/><rect x="101" y="303" width="31" height="31" stroke="#800000" stroke-width="2" stroke-linejoin="round" stroke-miterlimit="10" fill="#5BEF6C"/><rect x="162" y="272" width="31" height="31" stroke="#000090" stroke-width="2" stroke-linejoin="round" stroke-miterlimit="10" fill="none"/><text font-family="Arial,Arial_MSFontService,sans-serif" font-weight="400" font-size="18" transform="translate(172.159 294)">3</text><rect x="162" y="334" width="31" height="30" stroke="#000090" stroke-width="2" stroke-linejoin="round" stroke-miterlimit="10" fill="none"/><rect x="162" y="303" width="31" height="31" stroke="#000090" stroke-width="2" stroke-linejoin="round" stroke-miterlimit="10" fill="#5BEF6C"/><path d="M0 3.5C-3.8194e-16 1.567 1.34315 -4.45597e-16 3 -8.91193e-16 4.65685-1.78239e-15 6 1.567 6 3.5 6 5.433 4.65685 7 3 7 1.34315 7-1.9097e-15 5.433 0 3.5Z" fill="#800000" fill-rule="evenodd" transform="matrix(-1 0 0 1 83 314)"/><path d="M101.091 335.319 82 320" stroke="#800000" stroke-width="2" stroke-miterlimit="8" fill="#800000" fill-rule="evenodd"/><path d="M0 0 19.0908 15.3191" stroke="#000090" stroke-width="2" stroke-miterlimit="8" fill="#000090" fill-rule="evenodd" transform="matrix(1 0 0 -1 192 333.319)"/><path d="M210 316.5C210 314.567 211.343 313 213 313 214.657 313 216 314.567 216 316.5 216 318.433 214.657 320 213 320 211.343 320 210 318.433 210 316.5Z" fill="#000090" fill-rule="evenodd"/><path d="M0 0 19.0908 15.3189" stroke="#000090" stroke-width="2" stroke-miterlimit="8" fill="#000090" fill-rule="evenodd" transform="matrix(1 0 0 -1 370 334.319)"/><path d="M389 317.5C389 315.567 390.119 314 391.5 314 392.881 314 394 315.567 394 317.5 394 319.433 392.881 321 391.5 321 390.119 321 389 319.433 389 317.5Z" fill="#000090" fill-rule="evenodd"/><text font-family="Cambria Math,Cambria Math_MSFontService,sans-serif" font-weight="400" font-size="13" transform="translate(225.822 325)">−<tspan font-size="13" x="9.33333" y="0">&gt;</tspan><tspan font-family="Arial,Arial_MSFontService,sans-serif" font-size="19" x="45.2307" y="85">Trial </tspan><tspan font-family="Arial,Arial_MSFontService,sans-serif" font-size="19" x="85.8707" y="85">2 choice</tspan><tspan font-family="Calibri,Calibri_MSFontService,sans-serif" font-size="8" x="96.0986" y="-2">+</tspan></text><path d="M250.5 267.766C250.5 262.096 255.096 257.5 260.766 257.5L388.234 257.5C393.904 257.5 398.5 262.096 398.5 267.766L398.5 375.234C398.5 380.904 393.904 385.5 388.234 385.5L260.766 385.5C255.096 385.5 250.5 380.904 250.5 375.234Z" stroke="#000000" stroke-width="1.33333" stroke-miterlimit="8" fill="none" fill-rule="evenodd"/><rect x="278" y="273" width="31" height="31" stroke="#800000" stroke-width="2" stroke-linejoin="round" stroke-miterlimit="10" fill="none"/><text font-family="Arial,Arial_MSFontService,sans-serif" font-weight="400" font-size="18" transform="translate(281.419 295)">XX</text><rect x="278" y="335" width="31" height="31" stroke="#800000" stroke-width="2" stroke-linejoin="round" stroke-miterlimit="10" fill="none"/><rect x="278" y="304" width="31" height="31" stroke="#800000" stroke-width="2" stroke-linejoin="round" stroke-miterlimit="10" fill="none"/><text font-family="Arial,Arial_MSFontService,sans-serif" font-weight="400" font-size="18" transform="translate(288.502 327)">5</text><rect x="339" y="273" width="31" height="31" stroke="#000090" stroke-width="2" stroke-linejoin="round" stroke-miterlimit="10" fill="none"/><text font-family="Arial,Arial_MSFontService,sans-serif" font-weight="400" font-size="18" transform="translate(349.387 295)">3</text><rect x="339" y="335" width="31" height="31" stroke="#000090" stroke-width="2" stroke-linejoin="round" stroke-miterlimit="10" fill="none"/><rect x="339" y="304" width="31" height="31" stroke="#000090" stroke-width="2" stroke-linejoin="round" stroke-miterlimit="10" fill="none"/><text font-family="Arial,Arial_MSFontService,sans-serif" font-weight="400" font-size="18" transform="translate(342.303 327)">XX</text><path d="M0 2.72698C-4.20087e-16 1.22091 1.4773 -3.47181e-16 3.29963 -6.94362e-16 5.12197-1.38872e-15 6.59926 1.22091 6.59926 2.72698 6.59926 4.23305 5.12197 5.45396 3.29963 5.45396 1.4773 5.45396-2.10044e-15 4.23305 0 2.72698Z" fill="#800000" fill-rule="evenodd" transform="matrix(-0.451426 0.892309 0.892309 0.451426 254.251 346.267)"/><path d="M279.671 333.819 257.946 348.716" stroke="#800000" stroke-width="2" stroke-miterlimit="8" fill="#800000" fill-rule="evenodd"/><path d="M0 0 23.0998 12.6604" stroke="#000090" stroke-width="2" stroke-miterlimit="8" fill="#000090" fill-rule="evenodd" transform="matrix(0.459501 0.888177 0.888177 -0.459501 366.882 134.058)"/><path d="M389.829 147.566C391.167 146.874 392.93 147.625 393.767 149.244 394.605 150.862 394.199 152.736 392.861 153.428 391.524 154.12 389.761 153.369 388.923 151.75 388.086 150.131 388.491 148.258 389.829 147.566Z" fill="#000090" fill-rule="evenodd"/><text font-family="Arial,Arial_MSFontService,sans-serif" font-weight="700" font-size="32" transform="translate(31.7958 58)">A<tspan font-size="32" x="397.745" y="3">B</tspan><tspan font-family="Calibri,Calibri_MSFontService,sans-serif" font-weight="400" font-size="8" x="687.299" y="64">+</tspan></text><path d="M647.5 68.0865C647.5 62.2398 652.24 57.5001 658.086 57.5001L784.914 57.5001C790.76 57.5001 795.5 62.2398 795.5 68.0865L795.5 178.914C795.5 184.76 790.76 189.5 784.914 189.5L658.086 189.5C652.24 189.5 647.5 184.76 647.5 178.914Z" stroke="#000000" stroke-width="1.33333" stroke-miterlimit="8" fill="none" fill-rule="evenodd"/><rect x="675" y="72" width="31" height="31" stroke="#800000" stroke-width="2" stroke-linejoin="round" stroke-miterlimit="10" fill="none"/><text font-family="Arial,Arial_MSFontService,sans-serif" font-weight="400" font-size="18" transform="translate(685.676 95)">5</text><rect x="675" y="134" width="31" height="31" stroke="#800000" stroke-width="2" stroke-linejoin="round" stroke-miterlimit="10" fill="none"/><rect x="675" y="103" width="31" height="31" stroke="#800000" stroke-width="2" stroke-linejoin="round" stroke-miterlimit="10" fill="#5BEF6C"/><rect x="736" y="72" width="31" height="31" stroke="#000090" stroke-width="2" stroke-linejoin="round" stroke-miterlimit="10" fill="none"/><text font-family="Arial,Arial_MSFontService,sans-serif" font-weight="400" font-size="18" transform="translate(739.477 95)">XX</text><rect x="736" y="134" width="31" height="31" stroke="#000090" stroke-width="2" stroke-linejoin="round" stroke-miterlimit="10" fill="none"/><rect x="736" y="103" width="31" height="31" stroke="#000090" stroke-width="2" stroke-linejoin="round" stroke-miterlimit="10" fill="#5BEF6C"/><path d="M0 3C-3.18283e-16 1.34315 1.11929 -3.8194e-16 2.5 -7.6388e-16 3.88071-1.52776e-15 5 1.34315 5 3 5 4.65685 3.88071 6 2.5 6 1.11929 6-1.59142e-15 4.65685 0 3Z" fill="#800000" fill-rule="evenodd" transform="matrix(-1 0 0 1 657 115)"/><path d="M676.091 135.319 657 120" stroke="#800000" stroke-width="2" stroke-miterlimit="8" fill="#800000" fill-rule="evenodd"/><path d="M0 0 19.0908 15.3191" stroke="#000090" stroke-width="2" stroke-miterlimit="8" fill="#000090" fill-rule="evenodd" transform="matrix(1 0 0 -1 766 134.319)"/><path d="M785 117C785 115.343 786.119 114 787.5 114 788.881 114 790 115.343 790 117 790 118.657 788.881 120 787.5 120 786.119 120 785 118.657 785 117Z" fill="#000090" fill-rule="evenodd"/><text font-family="Calibri,Calibri_MSFontService,sans-serif" font-weight="400" font-size="8" transform="translate(541.578 123)">+</text><path d="M470.5 64.9586C470.5 60.8393 473.839 57.5001 477.959 57.5001L610.042 57.5001C614.161 57.5001 617.5 60.8393 617.5 64.9586L617.5 143.042C617.5 147.161 614.161 150.5 610.042 150.5L477.959 150.5C473.839 150.5 470.5 147.161 470.5 143.042Z" stroke="#000000" stroke-width="1.33333" stroke-miterlimit="8" fill="none" fill-rule="evenodd"/><rect x="498" y="72" width="31" height="31" stroke="#800000" stroke-width="2" stroke-linejoin="round" stroke-miterlimit="10" fill="none"/><text font-family="Arial,Arial_MSFontService,sans-serif" font-weight="400" font-size="18" transform="translate(501.076 95)">XX</text><rect x="498" y="104" width="31" height="31" stroke="#800000" stroke-width="2" stroke-linejoin="round" stroke-miterlimit="10" fill="#5BEF6C"/><rect x="559" y="72" width="30" height="31" stroke="#000090" stroke-width="2" stroke-linejoin="round" stroke-miterlimit="10" fill="none"/><text font-family="Arial,Arial_MSFontService,sans-serif" font-weight="400" font-size="18" transform="translate(569.044 95)">2</text><rect x="559" y="104" width="30" height="31" stroke="#000090" stroke-width="2" stroke-linejoin="round" stroke-miterlimit="10" fill="#5BEF6C"/><path d="M0 3.5C-3.8194e-16 1.567 1.34315 -4.45597e-16 3 -8.91193e-16 4.65685-1.78239e-15 6 1.567 6 3.5 6 5.433 4.65685 7 3 7 1.34315 7-1.9097e-15 5.433 0 3.5Z" fill="#800000" fill-rule="evenodd" transform="matrix(-1 0 0 1 480 115)"/><path d="M498.091 135.319 479 120" stroke="#800000" stroke-width="2" stroke-miterlimit="8" fill="#800000" fill-rule="evenodd"/><path d="M0 0 19.0908 15.3191" stroke="#000090" stroke-width="2" stroke-miterlimit="8" fill="#000090" fill-rule="evenodd" transform="matrix(1 0 0 -1 589 134.319)"/><path d="M607 117.5C607 115.567 608.343 114 610 114 611.657 114 613 115.567 613 117.5 613 119.433 611.657 121 610 121 608.343 121 607 119.433 607 117.5Z" fill="#000090" fill-rule="evenodd"/><text font-family="Calibri,Calibri_MSFontService,sans-serif" font-weight="400" font-size="8" transform="translate(898.963 121)">+</text><path d="M827.5 68.3696C827.5 61.8142 832.814 56.5001 839.37 56.5001L963.631 56.5001C970.186 56.5001 975.5 61.8142 975.5 68.3696L975.5 261.631C975.5 268.186 970.186 273.5 963.631 273.5L839.37 273.5C832.814 273.5 827.5 268.186 827.5 261.631Z" stroke="#000000" stroke-width="1.33333" stroke-miterlimit="8" fill="none" fill-rule="evenodd"/><rect x="855" y="71" width="31" height="31" stroke="#800000" stroke-width="2" stroke-linejoin="round" stroke-miterlimit="10" fill="none"/><text font-family="Arial,Arial_MSFontService,sans-serif" font-weight="400" font-size="18" transform="translate(858.462 94)">XX</text><rect x="855" y="133" width="31" height="31" stroke="#800000" stroke-width="2" stroke-linejoin="round" stroke-miterlimit="10" fill="none"/><rect x="855" y="102" width="31" height="31" stroke="#800000" stroke-width="2" stroke-linejoin="round" stroke-miterlimit="10" fill="#5BEF6C"/><rect x="916" y="71" width="31" height="31" stroke="#000090" stroke-width="2" stroke-linejoin="round" stroke-miterlimit="10" fill="none"/><text font-family="Arial,Arial_MSFontService,sans-serif" font-weight="400" font-size="18" transform="translate(926.429 94)">1</text><rect x="916" y="133" width="31" height="31" stroke="#000090" stroke-width="2" stroke-linejoin="round" stroke-miterlimit="10" fill="none"/><rect x="916" y="102" width="31" height="31" stroke="#000090" stroke-width="2" stroke-linejoin="round" stroke-miterlimit="10" fill="#5BEF6C"/><path d="M0 3C-3.8194e-16 1.34315 1.34315 -3.8194e-16 3 -7.6388e-16 4.65685-1.52776e-15 6 1.34315 6 3 6 4.65685 4.65685 6 3 6 1.34315 6-1.9097e-15 4.65685 0 3Z" fill="#800000" fill-rule="evenodd" transform="matrix(-1 0 0 1 837 114)"/><path d="M856.091 134.319 837 119" stroke="#800000" stroke-width="2" stroke-miterlimit="8" fill="#800000" fill-rule="evenodd"/><path d="M0 0 19.0908 15.3191" stroke="#000090" stroke-width="2" stroke-miterlimit="8" fill="#000090" fill-rule="evenodd" transform="matrix(1 0 0 -1 946 133.319)"/><path d="M965 116C965 114.343 966.119 113 967.5 113 968.881 113 970 114.343 970 116 970 117.657 968.881 119 967.5 119 966.119 119 965 117.657 965 116Z" fill="#000090" fill-rule="evenodd"/><rect x="855" y="164" width="31" height="31" stroke="#800000" stroke-width="2" stroke-linejoin="round" stroke-miterlimit="10" fill="none"/><rect x="916" y="164" width="31" height="31" stroke="#000090" stroke-width="2" stroke-linejoin="round" stroke-miterlimit="10" fill="none"/><rect x="855" y="196" width="31" height="31" stroke="#800000" stroke-width="2" stroke-linejoin="round" stroke-miterlimit="10" fill="none"/><rect x="916" y="196" width="31" height="31" stroke="#000090" stroke-width="2" stroke-linejoin="round" stroke-miterlimit="10" fill="none"/><rect x="855" y="227" width="31" height="31" stroke="#800000" stroke-width="2" stroke-linejoin="round" stroke-miterlimit="10" fill="none"/><rect x="916" y="227" width="31" height="31" stroke="#000090" stroke-width="2" stroke-linejoin="round" stroke-miterlimit="10" fill="none"/><text font-family="Calibri,Calibri_MSFontService,sans-serif" font-weight="400" font-size="24" transform="translate(520.789 177)">H = 1<tspan font-size="24" x="176.484" y="42">H = 2</tspan><tspan font-size="24" x="354.669" y="124">H = 5</tspan><tspan font-size="8" x="564.995" y="-54">+</tspan></text><path d="M1014.5 69.3697C1014.5 62.8143 1019.81 57.5001 1026.37 57.5001L1150.63 57.5001C1157.19 57.5001 1162.5 62.8143 1162.5 69.3697L1162.5 410.63C1162.5 417.186 1157.19 422.5 1150.63 422.5L1026.37 422.5C1019.81 422.5 1014.5 417.186 1014.5 410.63Z" stroke="#000000" stroke-width="1.33333" stroke-miterlimit="8" fill="none" fill-rule="evenodd"/><rect x="1042" y="72" width="31" height="31" stroke="#800000" stroke-width="2" stroke-linejoin="round" stroke-miterlimit="10" fill="none"/><text font-family="Arial,Arial_MSFontService,sans-serif" font-weight="400" font-size="18" transform="translate(1052.37 95)">4</text><rect x="1042" y="134" width="31" height="31" stroke="#800000" stroke-width="2" stroke-linejoin="round" stroke-miterlimit="10" fill="none"/><rect x="1042" y="104" width="31" height="31" stroke="#800000" stroke-width="2" stroke-linejoin="round" stroke-miterlimit="10" fill="#5BEF6C"/><rect x="1103" y="72" width="31" height="31" stroke="#000090" stroke-width="2" stroke-linejoin="round" stroke-miterlimit="10" fill="none"/><text font-family="Arial,Arial_MSFontService,sans-serif" font-weight="400" font-size="18" transform="translate(1106.17 95)">XX</text><rect x="1103" y="134" width="31" height="31" stroke="#000090" stroke-width="2" stroke-linejoin="round" stroke-miterlimit="10" fill="none"/><rect x="1103" y="104" width="31" height="31" stroke="#000090" stroke-width="2" stroke-linejoin="round" stroke-miterlimit="10" fill="#5BEF6C"/><path d="M0 3.5C-3.8194e-16 1.567 1.34315 -4.45597e-16 3 -8.91193e-16 4.65685-1.78239e-15 6 1.567 6 3.5 6 5.433 4.65685 7 3 7 1.34315 7-1.9097e-15 5.433 0 3.5Z" fill="#800000" fill-rule="evenodd" transform="matrix(-1 0 0 1 1024 115)"/><path d="M1042.09 135.319 1023 120" stroke="#800000" stroke-width="2" stroke-miterlimit="8" fill="#800000" fill-rule="evenodd"/><path d="M0 0 19.0908 15.3191" stroke="#000090" stroke-width="2" stroke-miterlimit="8" fill="#000090" fill-rule="evenodd" transform="matrix(1 0 0 -1 1133 134.319)"/><path d="M1151 117.5C1151 115.567 1152.34 114 1154 114 1155.66 114 1157 115.567 1157 117.5 1157 119.433 1155.66 121 1154 121 1152.34 121 1151 119.433 1151 117.5Z" fill="#000090" fill-rule="evenodd"/><rect x="1042" y="165" width="31" height="31" stroke="#800000" stroke-width="2" stroke-linejoin="round" stroke-miterlimit="10" fill="none"/><rect x="1103" y="165" width="31" height="31" stroke="#000090" stroke-width="2" stroke-linejoin="round" stroke-miterlimit="10" fill="none"/><rect x="1042" y="196" width="31" height="31" stroke="#800000" stroke-width="2" stroke-linejoin="round" stroke-miterlimit="10" fill="none"/><rect x="1103" y="196" width="31" height="31" stroke="#000090" stroke-width="2" stroke-linejoin="round" stroke-miterlimit="10" fill="none"/><rect x="1042" y="226" width="31" height="31" stroke="#800000" stroke-width="2" stroke-linejoin="round" stroke-miterlimit="10" fill="none"/><rect x="1103" y="226" width="31" height="31" stroke="#000090" stroke-width="2" stroke-linejoin="round" stroke-miterlimit="10" fill="none"/><rect x="1042" y="257" width="31" height="31" stroke="#800000" stroke-width="2" stroke-linejoin="round" stroke-miterlimit="10" fill="none"/><rect x="1103" y="257" width="31" height="31" stroke="#000090" stroke-width="2" stroke-linejoin="round" stroke-miterlimit="10" fill="none"/><rect x="1042" y="288" width="31" height="31" stroke="#800000" stroke-width="2" stroke-linejoin="round" stroke-miterlimit="10" fill="none"/><rect x="1103" y="288" width="31" height="31" stroke="#000090" stroke-width="2" stroke-linejoin="round" stroke-miterlimit="10" fill="none"/><rect x="1042" y="318" width="31" height="31" stroke="#800000" stroke-width="2" stroke-linejoin="round" stroke-miterlimit="10" fill="none"/><rect x="1103" y="318" width="31" height="31" stroke="#000090" stroke-width="2" stroke-linejoin="round" stroke-miterlimit="10" fill="none"/><rect x="1042" y="350" width="31" height="31" stroke="#800000" stroke-width="2" stroke-linejoin="round" stroke-miterlimit="10" fill="none"/><rect x="1103" y="350" width="31" height="31" stroke="#000090" stroke-width="2" stroke-linejoin="round" stroke-miterlimit="10" fill="none"/><text font-family="Calibri,Calibri_MSFontService,sans-serif" font-weight="400" font-size="24" transform="translate(1062.28 449)">H = 10</text><rect x="1042" y="381" width="30" height="31" stroke="#800000" stroke-width="2" stroke-linejoin="round" stroke-miterlimit="10" fill="none"/><rect x="1103" y="381" width="31" height="31" stroke="#000090" stroke-width="2" stroke-linejoin="round" stroke-miterlimit="10" fill="none"/><text font-family="Cambria Math,Cambria Math_MSFontService,sans-serif" font-weight="400" font-size="13" transform="translate(47.0676 522)">−<tspan font-size="13" x="9.33333" y="0">&gt;</tspan><tspan font-family="Arial,Arial_MSFontService,sans-serif" font-size="19" x="59.954" y="86">Trial 3</tspan><tspan font-family="Arial,Arial_MSFontService,sans-serif" font-size="19" x="116.094" y="86">cue</tspan><tspan font-family="Arial,Arial_MSFontService,sans-serif" font-size="19" x="80.8606" y="109">(free)</tspan><tspan font-family="Calibri,Calibri_MSFontService,sans-serif" font-size="8" x="98.9048" y="-1">+</tspan></text><path d="M74.5001 465.766C74.5001 460.096 79.0961 455.5 84.7657 455.5L212.234 455.5C217.904 455.5 222.5 460.096 222.5 465.766L222.5 573.234C222.5 578.904 217.904 583.5 212.234 583.5L84.7657 583.5C79.0961 583.5 74.5001 578.904 74.5001 573.234Z" stroke="#000000" stroke-width="1.33333" stroke-miterlimit="8" fill="none" fill-rule="evenodd"/><rect x="102" y="471" width="31" height="31" stroke="#800000" stroke-width="2" stroke-linejoin="round" stroke-miterlimit="10" fill="none"/><text font-family="Arial,Arial_MSFontService,sans-serif" font-weight="400" font-size="18" transform="translate(105.471 493)">XX</text><rect x="102" y="533" width="31" height="31" stroke="#800000" stroke-width="2" stroke-linejoin="round" stroke-miterlimit="10" fill="#5BEF6C"/><rect x="102" y="502" width="31" height="31" stroke="#800000" stroke-width="2" stroke-linejoin="round" stroke-miterlimit="10" fill="none"/><text font-family="Arial,Arial_MSFontService,sans-serif" font-weight="400" font-size="18" transform="translate(112.554 524)">5</text><rect x="163" y="471" width="31" height="31" stroke="#000090" stroke-width="2" stroke-linejoin="round" stroke-miterlimit="10" fill="none"/><text font-family="Arial,Arial_MSFontService,sans-serif" font-weight="400" font-size="18" transform="translate(173.439 493)">3</text><rect x="163" y="533" width="31" height="31" stroke="#000090" stroke-width="2" stroke-linejoin="round" stroke-miterlimit="10" fill="#5BEF6C"/><rect x="163" y="502" width="31" height="31" stroke="#000090" stroke-width="2" stroke-linejoin="round" stroke-miterlimit="10" fill="none"/><text font-family="Arial,Arial_MSFontService,sans-serif" font-weight="400" font-size="18" transform="translate(166.355 524)">XX</text><path d="M0 3.5C-3.8194e-16 1.567 1.34315 -4.45597e-16 3 -8.91193e-16 4.65685-1.78239e-15 6 1.567 6 3.5 6 5.433 4.65685 7 3 7 1.34315 7-1.9097e-15 5.433 0 3.5Z" fill="#800000" fill-rule="evenodd" transform="matrix(-1 0 0 1 84 513)"/><path d="M103.091 533.319 84 518" stroke="#800000" stroke-width="2" stroke-miterlimit="8" fill="#800000" fill-rule="evenodd"/><path d="M0 0 19.0908 15.3191" stroke="#000090" stroke-width="2" stroke-miterlimit="8" fill="#000090" fill-rule="evenodd" transform="matrix(1 0 0 -1 193 532.319)"/><path d="M212 515.5C212 513.567 213.119 512 214.5 512 215.881 512 217 513.567 217 515.5 217 517.433 215.881 519 214.5 519 213.119 519 212 517.433 212 515.5Z" fill="#000090" fill-rule="evenodd"/><text font-family="Cambria Math,Cambria Math_MSFontService,sans-serif" font-weight="400" font-size="13" transform="translate(227.851 522)">−<tspan font-size="13" x="9.33333" y="0">&gt;</tspan><tspan font-family="Calibri,Calibri_MSFontService,sans-serif" font-size="8" x="95.3184" y="-2">+</tspan></text><path d="M251.5 464.766C251.5 459.096 256.096 454.5 261.766 454.5L389.234 454.5C394.904 454.5 399.5 459.096 399.5 464.766L399.5 572.234C399.5 577.904 394.904 582.5 389.234 582.5L261.766 582.5C256.096 582.5 251.5 577.904 251.5 572.234Z" stroke="#000000" stroke-width="1.33333" stroke-miterlimit="8" fill="none" fill-rule="evenodd"/><rect x="279" y="470" width="31" height="31" stroke="#800000" stroke-width="2" stroke-linejoin="round" stroke-miterlimit="10" fill="none"/><text font-family="Arial,Arial_MSFontService,sans-serif" font-weight="400" font-size="18" transform="translate(282.668 492)">XX</text><rect x="279" y="532" width="31" height="31" stroke="#800000" stroke-width="2" stroke-linejoin="round" stroke-miterlimit="10" fill="none"/><text font-family="Arial,Arial_MSFontService,sans-serif" font-weight="400" font-size="18" transform="translate(289.751 554)">5</text><rect x="279" y="501" width="31" height="31" stroke="#800000" stroke-width="2" stroke-linejoin="round" stroke-miterlimit="10" fill="none"/><text font-family="Arial,Arial_MSFontService,sans-serif" font-weight="400" font-size="18" transform="translate(289.751 523)">5</text><rect x="340" y="470" width="31" height="31" stroke="#000090" stroke-width="2" stroke-linejoin="round" stroke-miterlimit="10" fill="none"/><text font-family="Arial,Arial_MSFontService,sans-serif" font-weight="400" font-size="18" transform="translate(350.636 492)">3</text><rect x="340" y="532" width="31" height="31" stroke="#000090" stroke-width="2" stroke-linejoin="round" stroke-miterlimit="10" fill="none"/><text font-family="Arial,Arial_MSFontService,sans-serif" font-weight="400" font-size="18" transform="translate(343.386 554)">XX</text><rect x="340" y="501" width="31" height="31" stroke="#000090" stroke-width="2" stroke-linejoin="round" stroke-miterlimit="10" fill="none"/><text font-family="Arial,Arial_MSFontService,sans-serif" font-weight="400" font-size="18" transform="translate(343.552 523)">XX</text><path d="M0 2.72698C-4.20087e-16 1.22091 1.4773 -3.47181e-16 3.29963 -6.94362e-16 5.12197-1.38872e-15 6.59926 1.22091 6.59926 2.72698 6.59926 4.23305 5.12197 5.45396 3.29963 5.45396 1.4773 5.45396-2.10044e-15 4.23305 0 2.72698Z" fill="#800000" fill-rule="evenodd" transform="matrix(-0.451426 0.892309 0.892309 0.451426 255.5 543.079)"/><path d="M280.92 530.631 259.195 545.528" stroke="#800000" stroke-width="2" stroke-miterlimit="8" fill="#800000" fill-rule="evenodd"/><text font-family="Arial,Arial_MSFontService,sans-serif" font-weight="400" font-size="19" transform="translate(258.766 605)">Trial 3<tspan font-size="19" x="56.14" y="0">response</tspan></text></g></svg>